<?xml version="1.0"?>
<svg xmlns="http://www.w3.org/2000/svg" xmlns:xlink="http://www.w3.org/1999/xlink" viewBox="0 0 512 512" width="512" height="512"><linearGradient id="a" gradientUnits="userSpaceOnUse" x1="256.001" x2="256.001" y1="14.767" y2="489.422"><stop offset="0" stop-color="#00efd1"/><stop offset="1" stop-color="#00acea"/></linearGradient><linearGradient id="b" x1="214.04" x2="214.04" xlink:href="#a" y1="14.767" y2="489.422"/><path d="m402.2 215a10.175 10.175 0 0 0 6.791-2.836l77.03-71.353a10.376 10.376 0 0 0 2.52-11.222 10.22 10.22 0 0 0 -9.314-6.589h-95.392c-.1 0-.3-1.784-.632-2.625a10.041 10.041 0 0 0 -9.303-6.375h-153.008a10.046 10.046 0 0 0 -6.828 2.739l-6.652 6.261h-97.612a10.192 10.192 0 0 0 -6.791 2.851l-77.029 71.36a10.359 10.359 0 0 0 -2.521 11.211 10.211 10.211 0 0 0 9.315 6.578h95.226v40h-95.226a10 10 0 0 0 0 20h95.226v42h-95.226a10 10 0 0 0 0 20h95.226v41h-95.226a10 10 0 0 0 0 20h369.426a10.253 10.253 0 0 0 5.468-1.865l77.029-50.423a10.072 10.072 0 0 0 2.906-13.9 9.951 9.951 0 0 0 -13.841-2.7l-74.54 48.888h-98.222v-41h101.2a10.132 10.132 0 0 0 5.849-2.018l77.029-55.61a9.967 9.967 0 1 0 -11.7-16.141l-74.41 53.769h-97.968v-42h101.2a9.8 9.8 0 0 0 6.195-1.934l77.029-60.676a10.054 10.054 0 0 0 -12.389-15.836l-74.308 58.446h-97.727v-40zm-33.536-72h85.031l-55.411 52h-85.119l55.145-51.65c.118.004.232-.35.351-.35zm-237.828 52h-72.528l55.411-52h72.2l-54.629 51.165c-.161.148-.305-.165-.454.835zm153.409-1.057a10.577 10.577 0 0 0 -3.245 7.557v176.5h-133v-172.14l68.508-63.888 8.328-7.972h123.664z" fill="url(#a)"/><path d="m214.08 244.411a16.533 16.533 0 0 1 16.514 16.515 9.981 9.981 0 1 0 19.961 0 36.95 36.95 0 0 0 -26.555-35.111v-6.5a10 10 0 0 0 -20 0v6.5a36.516 36.516 0 0 0 10.06 71.625 16.515 16.515 0 1 1 -16.5 16.515 10.019 10.019 0 0 0 -20.038 0 36.88 36.88 0 0 0 26.478 35.111v6.5a10 10 0 0 0 20 0v-6.5a36.95 36.95 0 0 0 26.555-35.111 36.54 36.54 0 0 0 -36.5-36.515 16.515 16.515 0 1 1 .02-33.029z" fill="url(#b)"/></svg>
